# This file uses meters as units for non-parametric coordinates.

mtllib Scroll_low.mtl
g default
v 1.798069 0.241307 8.529153
v 0.610226 -0.563846 8.537723
v -0.824024 -0.517124 8.531319
v -1.956837 0.363583 8.512374
v -2.355553 1.741955 8.493366
v -1.867851 3.091488 8.478319
v -0.680033 3.896717 8.476242
v 0.754217 3.850018 8.482655
v 1.887057 2.969212 8.495111
v 2.285769 1.590825 8.514095
v 1.283685 0.645535 1.038361
v 0.514170 0.123898 1.041800
v -0.616526 0.160717 1.036756
v -1.350409 0.731312 1.026596
v -1.608709 1.624272 1.014266
v -1.292759 2.498555 1.004532
v -0.523244 3.020153 1.001053
v 0.607450 2.983342 1.006134
v 1.341335 2.412762 1.016313
v 1.599635 1.519787 1.028600
v 1.292759 0.617321 -1.198078
v 0.523243 0.095707 -1.194627
v -0.607452 0.132519 -1.199690
v -1.341337 0.703106 -1.209864
v -1.599646 1.596081 -1.222150
v -1.283688 2.470341 -1.231923
v -0.514174 2.991963 -1.235362
v 0.616525 2.955136 -1.230316
v 1.350410 2.384556 -1.220145
v 1.608705 1.491589 -1.207840
v 1.867851 0.024388 -8.671879
v 0.680033 -0.780841 -8.669814
v -0.754218 -0.734150 -8.676213
v -1.887053 0.146672 -8.688652
v -2.285772 1.525052 -8.707666
v -1.798067 2.874569 -8.722696
v -0.610230 3.679715 -8.731299
v 0.824025 3.633000 -8.724888
v 1.956841 2.752293 -8.705937
v 2.355553 1.373906 -8.686914
v 0.569880 -0.258632 -5.279000
v 1.501645 0.373005 -5.281516
v 1.884211 1.431622 -5.293321
v 1.571449 2.512875 -5.308231
v 0.682829 3.203747 -5.322199
v -0.527637 3.243161 -5.327613
v -1.459414 2.611576 -5.321760
v -1.841986 1.552967 -5.309967
v -1.529221 0.471722 -5.295072
v -0.640585 -0.219196 -5.284389
v -0.666813 -0.047397 5.192416
v 0.513714 -0.085849 5.197674
v 1.423882 0.531086 5.191939
v 1.797580 1.565144 5.180426
v 1.492071 2.621319 5.165866
v 0.624043 3.296200 5.155469
v -0.556480 3.334668 5.150196
v -1.466635 2.717686 5.152651
v -1.840334 1.683621 5.164166
v -1.534822 0.627438 5.178724
v 0.800272 3.919926 8.481953
v 0.970612 4.151593 8.476471
v 0.959722 3.773259 5.149185
v 0.829198 3.595730 5.152531
v 0.674080 3.047406 1.005579
v 0.784422 3.197514 1.004125
v 0.793494 3.169331 -1.232293
v 0.683154 3.019207 -1.230850
v 1.004002 3.649907 -5.324857
v 0.870399 3.468113 -5.324769
v 1.040396 3.934681 -8.724562
v 0.870080 3.702923 -8.725578
v 0.082671 4.297848 8.474290
v 0.172100 4.419430 8.469855
v 0.162546 3.886525 5.144511
v 0.094024 3.793339 5.147048
v -0.338108 3.238369 1.000417
v -0.280186 3.317166 0.999668
v -0.271111 3.288952 -1.236779
v -0.329033 3.210156 -1.236021
v 0.205975 3.759030 -5.329475
v 0.135849 3.663601 -5.330229
v 0.241881 4.202511 -8.731179
v 0.152479 4.080838 -8.733234
v -0.494107 4.447140 8.470057
v -0.404676 4.568715 8.465628
v -0.414233 4.035839 5.140295
v -0.482751 3.942646 5.142819
v -0.762129 3.396161 1.000964
v -0.764478 3.467579 0.999808
v -0.755409 3.439358 -1.236628
v -0.753059 3.367955 -1.235472
v -0.370800 3.908329 -5.333716
v -0.440930 3.812893 -5.334443
v -0.334894 4.351818 -8.735398
v -0.424296 4.230145 -8.737487
v 1.595383 0.398884 8.526330
v 0.538887 -0.317218 8.534341
v -0.736765 -0.275684 8.528640
v -1.744310 0.507656 8.511414
v -2.098940 1.733609 8.494511
v -1.665161 2.933911 8.481149
v -0.608697 3.650090 8.479650
v 0.666953 3.608570 8.485351
v 1.674532 2.825154 8.496059
v 2.029156 1.599156 8.512944
v 1.665167 0.181965 -8.674694
v 0.608694 -0.534221 -8.673204
v -0.666956 -0.492687 -8.678892
v -1.674528 0.290730 -8.689613
v -2.029158 1.516682 -8.706528
v -1.595383 2.716992 -8.719883
v -0.538885 3.433087 -8.727882
v 0.736759 3.391552 -8.722174
v 1.744313 2.608227 -8.704986
v 2.098937 1.382260 -8.688084
v 1.261369 0.654248 8.063788
v 0.422531 0.085682 8.070635
v -0.032589 1.659237 7.936269
v -0.590307 0.118657 8.066107
v -1.390276 0.740590 8.051935
v -1.671843 1.713986 8.038508
v -1.327433 2.666989 8.027893
v -0.488623 3.235638 8.027197
v 0.524210 3.202649 8.031743
v 1.324210 2.580624 8.039739
v 1.605775 1.607258 8.053179
v 1.327435 0.448872 -8.221455
v 0.488623 -0.119762 -8.220761
v 0.032591 1.456623 -8.129839
v -0.524216 -0.086795 -8.225294
v -1.324209 0.535214 -8.233308
v -1.605780 1.508633 -8.246704
v -1.261368 2.461613 -8.257352
v -0.422532 3.030186 -8.264197
v 0.590304 2.997212 -8.259668
v 1.390275 2.375271 -8.245491
v 1.671841 1.401890 -8.232071
vt 0.088475 0.526194
vt 0.084917 0.531107
vt 0.072228 0.521087
vt 0.075343 0.516945
vt 0.081065 0.535776
vt 0.068778 0.525467
vt 0.077042 0.540316
vt 0.065430 0.529439
vt 0.072824 0.544748
vt 0.061971 0.533311
vt 0.068393 0.549167
vt 0.058335 0.537017
vt 0.063551 0.553377
vt 0.054558 0.540550
vt 0.058215 0.557155
vt 0.050327 0.544069
vt 0.101706 0.504130
vt 0.101239 0.504578
vt 0.087626 0.497664
vt 0.087850 0.497167
vt 0.095317 0.516015
vt 0.091907 0.521159
vt 0.078326 0.512723
vt 0.081122 0.508383
vt 0.059088 0.504910
vt 0.056364 0.508504
vt 0.047527 0.501846
vt 0.050259 0.498237
vt 0.053049 0.512869
vt 0.044255 0.506262
vt 0.050303 0.516417
vt 0.041587 0.509899
vt 0.047543 0.519921
vt 0.038978 0.513552
vt 0.044783 0.523335
vt 0.036474 0.517203
vt 0.042004 0.526675
vt 0.034067 0.520875
vt 0.038517 0.530664
vt 0.031310 0.525394
vt 0.071651 0.487061
vt 0.071408 0.487448
vt 0.063875 0.481656
vt 0.064184 0.481321
vt 0.064448 0.497676
vt 0.061794 0.501297
vt 0.053017 0.494652
vt 0.055802 0.491135
vt 0.031334 0.490228
vt 0.034543 0.486049
vt 0.028030 0.494844
vt 0.025082 0.499222
vt 0.022275 0.503693
vt 0.019671 0.508298
vt 0.017285 0.513008
vt 0.015055 0.518226
vt 0.049929 0.468943
vt 0.050358 0.468587
vt 0.037866 0.481975
vt 0.041349 0.478041
vt 0.106503 0.527252
vt 0.102076 0.525824
vt 0.106466 0.519767
vt 0.110934 0.525829
vt 0.113584 0.522035
vt 0.113597 0.517428
vt 0.110856 0.513710
vt 0.106439 0.512319
vt 0.102014 0.513771
vt 0.099330 0.517433
vt 0.099325 0.522069
vt 0.018651 0.462413
vt 0.016054 0.458563
vt 0.023314 0.456604
vt 0.016315 0.453915
vt 0.019228 0.450308
vt 0.023692 0.449108
vt 0.027975 0.450796
vt 0.030535 0.454643
vt 0.030245 0.459290
vt 0.027466 0.462905
vt 0.022972 0.464103
vt 0.018145 0.480631
vt 0.021927 0.475791
vt 0.025868 0.471049
vt 0.029924 0.466317
vt 0.039400 0.457501
vt 0.039708 0.456928
vt 0.000000 0.513828
vt 0.002281 0.507591
vt 0.005032 0.501735
vt 0.008080 0.496182
vt 0.011228 0.490820
vt 0.014533 0.485614
vt 0.099656 0.510705
vt 0.098243 0.509986
vt 0.099371 0.510494
vt 0.084369 0.503414
vt 0.092064 0.490254
vt 0.104896 0.498254
vt 0.104724 0.498600
vt 0.091279 0.491749
vt 0.058667 0.487489
vt 0.067195 0.493959
vt 0.068571 0.475437
vt 0.076170 0.481260
vt 0.075938 0.481623
vt 0.068282 0.475757
vt 0.045266 0.473604
vt 0.055754 0.462811
vt 0.054655 0.463843
vt 0.034970 0.461860
vt 0.033896 0.460703
vt 0.034176 0.460917
vt 0.044525 0.452263
vt 0.044237 0.452522
vt 0.100225 0.506948
vt 0.100965 0.506987
vt 0.086190 0.500088
vt 0.103001 0.501845
vt 0.089361 0.494777
vt 0.062007 0.483633
vt 0.070003 0.489754
vt 0.073054 0.485410
vt 0.065397 0.479537
vt 0.047980 0.470970
vt 0.052255 0.466495
vt 0.037379 0.459121
vt 0.037143 0.458419
vt 0.041569 0.455060
vt 0.106569 0.531340
vt 0.099736 0.529179
vt 0.100433 0.528198
vt 0.106558 0.530137
vt 0.113339 0.529073
vt 0.112626 0.528105
vt 0.117550 0.523276
vt 0.116403 0.522913
vt 0.117469 0.516096
vt 0.116329 0.516479
vt 0.113195 0.510355
vt 0.112499 0.511336
vt 0.106375 0.508240
vt 0.106386 0.509445
vt 0.100351 0.511601
vt 0.096483 0.516449
vt 0.095450 0.523391
vt 0.096590 0.523007
vt 0.016055 0.465657
vt 0.012158 0.459623
vt 0.013319 0.459311
vt 0.016811 0.464720
vt 0.012483 0.452490
vt 0.013607 0.452918
vt 0.016951 0.446908
vt 0.017611 0.447914
vt 0.023858 0.445016
vt 0.023800 0.446217
vt 0.030571 0.447552
vt 0.029816 0.448489
vt 0.034421 0.453582
vt 0.033259 0.453895
vt 0.032844 0.460280
vt 0.029192 0.465307
vt 0.022816 0.468196
vt 0.022877 0.466995
vn 0.779819 -0.610057 -0.140401
vn 0.267519 -0.952719 -0.144084
vn 0.263609 -0.959781 -0.096595
vn 0.785389 -0.611927 -0.093320
vn -0.327644 -0.933336 -0.146742
vn -0.324625 -0.940624 -0.099223
vn -0.816572 -0.558072 -0.147533
vn -0.822673 -0.559560 -0.100504
vn -0.987702 0.030303 -0.153385
vn -0.993864 0.031097 -0.106147
vn -0.778594 0.606241 -0.162061
vn -0.784544 0.609298 -0.115091
vn -0.266242 0.948756 -0.170228
vn -0.262715 0.957014 -0.122905
vn -0.111203 0.980996 -0.158997
vn -0.100179 0.988215 -0.115739
vn -0.803971 0.593180 0.042052
vn -0.793106 0.589270 0.154091
vn -0.862591 0.503809 -0.045960
vn -0.872023 0.488014 -0.037648
vn 0.903986 0.408790 -0.125302
vn 0.988910 -0.034064 -0.144555
vn 0.994689 -0.033662 -0.097264
vn 0.912553 0.397500 -0.096134
vn 0.789695 -0.612962 -0.025669
vn 0.255608 -0.966377 -0.027913
vn 0.255110 -0.964928 0.061910
vn 0.789104 -0.611768 0.055268
vn -0.317681 -0.947708 -0.030474
vn -0.317893 -0.946267 0.059349
vn -0.827642 -0.560291 -0.032894
vn -0.827697 -0.559116 0.048044
vn -0.998716 0.032090 -0.039211
vn -0.998728 0.033055 0.038067
vn -0.789397 0.612041 -0.047524
vn -0.789462 0.612890 0.033419
vn -0.255267 0.965342 -0.054347
vn -0.255501 0.966157 0.035485
vn -0.078486 0.995431 -0.054389
vn -0.068726 0.997007 0.035399
vn -0.968470 0.248796 0.012910
vn -0.965268 0.260905 0.013624
vn -0.964136 0.263948 -0.027807
vn -0.967878 0.250002 -0.026685
vn 0.913410 0.404529 -0.045139
vn 0.998998 -0.032967 -0.030287
vn 0.998383 -0.031982 0.046990
vn 0.910505 0.410629 0.048627
vn 0.262894 -0.957151 0.121448
vn 0.784741 -0.609383 0.113287
vn -0.325688 -0.937982 0.118818
vn -0.823705 -0.557003 0.106101
vn -0.994866 0.033645 0.095449
vn -0.785570 0.611968 0.091514
vn -0.263772 0.959882 0.095136
vn -0.088856 0.992007 0.089588
vn -0.861252 0.507518 0.025886
vn -0.870497 0.491840 0.018114
vn 0.994055 -0.031125 0.104336
vn 0.908718 0.407011 0.092598
vn -0.131870 0.459044 0.878572
vn -0.369632 0.297311 0.880329
vn -0.004061 0.012612 0.999912
vn 0.153608 0.449752 0.879845
vn 0.380329 0.272899 0.883672
vn 0.461036 -0.003968 0.887373
vn 0.362464 -0.274989 0.890506
vn 0.124691 -0.436731 0.890909
vn -0.160791 -0.427433 0.889634
vn -0.387506 -0.250553 0.887165
vn -0.468212 0.026293 0.883225
vn -0.362459 0.274984 -0.890510
vn -0.124692 0.436722 -0.890913
vn 0.004058 -0.012612 -0.999912
vn 0.160787 0.427427 -0.889637
vn 0.387514 0.250561 -0.887160
vn 0.468213 -0.026298 -0.883224
vn 0.369635 -0.297314 -0.880327
vn 0.131870 -0.459026 -0.878582
vn -0.153605 -0.449737 -0.879854
vn -0.380330 -0.272891 -0.883674
vn -0.461038 0.003963 -0.887372
vn 0.266705 -0.951205 0.155169
vn 0.780392 -0.607819 0.146783
vn 0.989958 -0.030569 0.138016
vn 0.901574 0.418199 0.110790
vn -0.792603 0.585573 -0.169955
vn -0.803655 0.591859 -0.061982
vn -0.097207 0.987918 0.120699
vn -0.267855 0.954788 0.128968
vn -0.781493 0.611248 0.125077
vn -0.991042 0.033942 0.129165
vn -0.819563 -0.555713 0.139637
vn -0.329404 -0.931791 0.152509
vn -0.000796 0.013978 0.999902
vn -0.002622 0.012315 0.999921
vn 0.002937 0.021341 0.999768
vn 0.003139 0.020272 0.999790
vn 0.625057 0.770506 -0.125000
vn 0.652055 0.747466 -0.126958
vn -0.600139 -0.793767 0.098826
vn -0.519606 -0.845306 0.124369
vn 0.553045 0.830105 0.071187
vn 0.559424 0.824650 -0.083652
vn -0.389180 -0.916485 0.092703
vn -0.373195 -0.924812 -0.073810
vn 0.617249 0.779077 0.109736
vn -0.498357 -0.860214 -0.108038
vn 0.645205 0.756677 0.105598
vn 0.005510 -0.012904 -0.999902
vn 0.007305 -0.011290 -0.999910
vn 0.011230 -0.004978 -0.999925
vn 0.011021 -0.003917 -0.999932
vn -0.580257 -0.810240 -0.082534
vn 0.001894 0.028605 0.999589
vn 0.001867 0.029994 0.999548
vn 0.201882 0.968471 -0.145973
vn 0.238735 0.960658 -0.141922
vn -0.314544 -0.940683 0.127191
vn -0.275046 -0.951522 0.137681
vn 0.177148 0.981096 0.077911
vn 0.178309 0.978948 -0.099331
vn -0.242303 -0.965274 0.097652
vn -0.241493 -0.967371 -0.076641
vn 0.200109 0.971995 0.123215
vn -0.274242 -0.954649 -0.115917
vn 0.236402 0.964769 0.115476
vn 0.009943 0.004671 -0.999940
vn 0.009962 0.003294 -0.999945
vn -0.313155 -0.944091 -0.103079
vn 0.259672 0.953144 -0.155198
vn 0.248660 0.956276 -0.153959
vn -0.248960 -0.957694 0.144363
vn -0.270777 -0.951256 0.147618
vn 0.278962 0.956340 0.087140
vn 0.278920 0.954223 -0.107996
vn -0.309721 -0.944852 0.106431
vn -0.310126 -0.946833 -0.085609
vn 0.258882 0.956706 0.133018
vn -0.269901 -0.954674 -0.125504
vn 0.247665 0.960377 0.127820
vn -0.247989 -0.961415 -0.119091
vn -0.003063 0.013251 0.999908
vn -0.003078 0.013291 0.999907
vn -0.378112 0.303827 0.874483
vn -0.134599 0.468402 0.873203
vn -0.005007 0.013312 0.999899
vn 0.156990 0.458908 0.874505
vn -0.005001 0.013345 0.999899
vn 0.389273 0.278839 0.877904
vn -0.004071 0.012619 0.999912
vn 0.471682 -0.004383 0.881758
vn -0.005086 0.011967 0.999915
vn 0.370973 -0.281636 0.884907
vn -0.005067 0.011976 0.999916
vn 0.127461 -0.446222 0.885799
vn -0.164125 -0.436722 0.884498
vn -0.396392 -0.256652 0.881478
vn -0.004083 0.012612 0.999912
vn -0.478814 0.026574 0.877514
vn 0.005080 -0.011942 -0.999916
vn 0.005049 -0.011908 -0.999916
vn -0.127465 0.446237 -0.885791
vn -0.370975 0.281637 -0.884906
vn 0.003109 -0.011846 -0.999925
vn 0.164122 0.436734 -0.884493
vn 0.003102 -0.011878 -0.999925
vn 0.396408 0.256643 -0.881473
vn 0.004044 -0.012612 -0.999912
vn 0.478820 -0.026566 -0.877511
vn 0.003072 -0.013295 -0.999907
vn 0.378113 -0.303824 -0.874484
vn 0.003075 -0.013344 -0.999906
vn 0.134601 -0.468414 -0.873196
vn -0.156995 -0.458921 -0.874496
vn -0.389265 -0.278837 -0.877908
vn 0.004112 -0.012618 -0.999912
vn -0.471673 0.004379 -0.881763
s 1
g pasted__polySurface95 pasted__scrolls pasted__group4 group
usemtl pasted__lambert2SG
f 1/1/1 2/2/2 52/3/3 53/4/4
f 2/2/2 3/5/5 51/6/6 52/3/3
f 3/5/5 4/7/7 60/8/8 51/6/6
f 4/7/7 5/9/9 59/10/10 60/8/8
f 5/9/9 6/11/11 58/12/12 59/10/10
f 6/11/11 7/13/13 57/14/14 58/12/12
f 7/13/13 8/15/15 56/16/16 57/14/14
s 2
f 85/17/17 86/18/18 87/19/19 88/20/20
s 1
f 9/21/21 10/22/22 54/23/23 55/24/24
f 10/22/22 1/1/1 53/4/4 54/23/23
f 11/25/25 12/26/26 22/27/27 21/28/28
f 12/26/26 13/29/29 23/30/30 22/27/27
f 13/29/29 14/31/31 24/32/32 23/30/30
f 14/31/31 15/33/33 25/34/34 24/32/32
f 15/33/33 16/35/35 26/36/36 25/34/34
f 16/35/35 17/37/37 27/38/38 26/36/36
f 17/37/37 18/39/39 28/40/40 27/38/38
s 2
f 89/41/41 90/42/42 91/43/43 92/44/44
s 1
f 19/45/45 20/46/46 30/47/47 29/48/48
f 20/46/46 11/25/25 21/28/28 30/47/47
f 21/28/28 22/27/27 41/49/49 42/50/50
f 22/27/27 23/30/30 50/51/51 41/49/49
f 23/30/30 24/32/32 49/52/52 50/51/51
f 24/32/32 25/34/34 48/53/53 49/52/52
f 25/34/34 26/36/36 47/54/54 48/53/53
f 26/36/36 27/38/38 46/55/55 47/54/54
f 27/38/38 28/40/40 45/56/56 46/55/55
s 2
f 92/44/44 91/43/43 93/57/57 94/58/58
s 1
f 29/48/48 30/47/47 43/59/59 44/60/60
f 30/47/47 21/28/28 42/50/50 43/59/59
s 2
f 118/61/61 117/62/62 119/63/63
f 120/64/64 118/61/61 119/63/63
f 121/65/65 120/64/64 119/63/63
f 122/66/66 121/65/65 119/63/63
f 123/67/67 122/66/66 119/63/63
f 124/68/68 123/67/67 119/63/63
f 125/69/69 124/68/68 119/63/63
f 126/70/70 125/69/69 119/63/63
f 127/71/71 126/70/70 119/63/63
f 117/62/62 127/71/71 119/63/63
f 128/72/72 129/73/73 130/74/74
f 129/73/73 131/75/75 130/74/74
f 131/75/75 132/76/76 130/74/74
f 132/76/76 133/77/77 130/74/74
f 133/77/77 134/78/78 130/74/74
f 134/78/78 135/79/79 130/74/74
f 135/79/79 136/80/80 130/74/74
f 136/80/80 137/81/81 130/74/74
f 137/81/81 138/82/82 130/74/74
f 138/82/82 128/72/72 130/74/74
s 1
f 42/50/50 41/49/49 32/83/83 31/84/84
f 43/59/59 42/50/50 31/84/84 40/85/85
f 44/60/60 43/59/59 40/85/85 39/86/86
s 2
f 94/58/58 93/57/57 95/87/87 96/88/88
s 1
f 46/55/55 45/56/56 38/89/89 37/90/90
f 47/54/54 46/55/55 37/90/90 36/91/91
f 48/53/53 47/54/54 36/91/91 35/92/92
f 49/52/52 48/53/53 35/92/92 34/93/93
f 50/51/51 49/52/52 34/93/93 33/94/94
f 41/49/49 50/51/51 33/94/94 32/83/83
f 52/3/3 51/6/6 13/29/29 12/26/26
f 53/4/4 52/3/3 12/26/26 11/25/25
f 54/23/23 53/4/4 11/25/25 20/46/46
f 55/24/24 54/23/23 20/46/46 19/45/45
s 2
f 88/20/20 87/19/19 90/42/42 89/41/41
s 1
f 57/14/14 56/16/16 18/39/39 17/37/37
f 58/12/12 57/14/14 17/37/37 16/35/35
f 59/10/10 58/12/12 16/35/35 15/33/33
f 60/8/8 59/10/10 15/33/33 14/31/31
f 51/6/6 60/8/8 14/31/31 13/29/29
s 2
f 8/95/95 9/21/96 62/96/97 61/97/98
s 1
f 9/21/21 55/24/24 63/98/99 62/96/100
f 56/99/16 8/100/15 61/101/101 64/102/102
f 19/45/45 29/48/48 67/103/103 66/104/104
f 28/105/40 18/106/39 65/107/105 68/108/106
f 29/48/48 44/60/60 69/109/107 67/103/103
f 45/110/56 28/105/40 68/108/106 70/111/108
f 44/60/60 39/86/86 71/112/109 69/109/107
s 2
f 39/86/110 38/113/111 72/114/112 71/112/113
s 1
f 38/115/89 45/110/56 70/111/108 72/116/114
f 55/24/24 19/45/45 66/104/104 63/98/99
f 18/106/39 56/99/16 64/102/102 65/107/105
s 2
f 61/97/98 62/96/97 74/117/115 73/118/116
s 1
f 62/96/100 63/98/99 75/119/117 74/117/118
f 64/102/102 61/101/101 73/120/119 76/121/120
f 66/104/104 67/103/103 79/122/121 78/123/122
f 68/108/106 65/107/105 77/124/123 80/125/124
f 67/103/103 69/109/107 81/126/125 79/122/121
f 70/111/108 68/108/106 80/125/124 82/127/126
f 69/109/107 71/112/109 83/128/127 81/126/125
s 2
f 71/112/113 72/114/112 84/129/128 83/128/129
s 1
f 72/116/114 70/111/108 82/127/126 84/130/130
f 63/98/99 66/104/104 78/123/122 75/119/117
f 65/107/105 64/102/102 76/121/120 77/124/123
s 2
f 73/118/116 74/117/115 86/18/18 85/17/17
s 1
f 74/117/118 75/119/117 87/19/131 86/18/132
f 76/121/120 73/120/119 85/17/133 88/20/134
f 78/123/122 79/122/121 91/43/135 90/42/136
f 80/125/124 77/124/123 89/41/137 92/44/138
f 79/122/121 81/126/125 93/57/139 91/43/135
f 82/127/126 80/125/124 92/44/138 94/58/140
f 81/126/125 83/128/127 95/87/141 93/57/139
s 2
f 83/128/129 84/129/128 96/88/88 95/87/87
s 1
f 84/130/130 82/127/126 94/58/140 96/88/142
f 75/119/117 78/123/122 90/42/136 87/19/131
f 77/124/123 76/121/120 88/20/134 89/41/137
s 2
f 2/131/143 1/132/144 97/133/145 98/134/146
f 3/135/147 2/131/143 98/134/146 99/136/148
f 4/137/149 3/135/147 99/136/148 100/138/150
f 5/139/151 4/137/149 100/138/150 101/140/152
f 6/141/153 5/139/151 101/140/152 102/142/154
f 7/143/155 6/141/153 102/142/154 103/144/156
f 8/95/95 7/143/155 103/144/156 104/145/157
f 9/21/96 8/95/95 104/145/157 105/146/158
f 10/147/159 9/21/96 105/146/158 106/148/160
f 1/132/144 10/147/159 106/148/160 97/133/145
f 31/149/161 32/150/162 108/151/163 107/152/164
f 32/150/162 33/153/165 109/154/166 108/151/163
f 33/153/165 34/155/167 110/156/168 109/154/166
f 34/155/167 35/157/169 111/158/170 110/156/168
f 35/157/169 36/159/171 112/160/172 111/158/170
f 36/159/171 37/161/173 113/162/174 112/160/172
f 37/161/173 38/113/111 114/163/175 113/162/174
f 38/113/111 39/86/110 115/164/176 114/163/175
f 39/86/110 40/165/177 116/166/178 115/164/176
f 40/165/177 31/149/161 107/152/164 116/166/178
f 98/134/146 97/133/145 117/62/62 118/61/61
f 99/136/148 98/134/146 118/61/61 120/64/64
f 100/138/150 99/136/148 120/64/64 121/65/65
f 101/140/152 100/138/150 121/65/65 122/66/66
f 102/142/154 101/140/152 122/66/66 123/67/67
f 103/144/156 102/142/154 123/67/67 124/68/68
f 104/145/157 103/144/156 124/68/68 125/69/69
f 105/146/158 104/145/157 125/69/69 126/70/70
f 106/148/160 105/146/158 126/70/70 127/71/71
f 97/133/145 106/148/160 127/71/71 117/62/62
f 107/152/164 108/151/163 129/73/73 128/72/72
f 108/151/163 109/154/166 131/75/75 129/73/73
f 109/154/166 110/156/168 132/76/76 131/75/75
f 110/156/168 111/158/170 133/77/77 132/76/76
f 111/158/170 112/160/172 134/78/78 133/77/77
f 112/160/172 113/162/174 135/79/79 134/78/78
f 113/162/174 114/163/175 136/80/80 135/79/79
f 114/163/175 115/164/176 137/81/81 136/80/80
f 115/164/176 116/166/178 138/82/82 137/81/81
f 116/166/178 107/152/164 128/72/72 138/82/82
